<svg width="116" height="116" viewBox="0 0 16 16" fill="none" xmlns="http://www.w3.org/2000/svg">
<path d="M6.0385 11.668C5.70172 11.668 5.41667 11.5513 5.18333 11.318C4.95 11.0846 4.83333 10.7996 4.83333 10.4628V2.87314C4.83333 2.53636 4.95 2.2513 5.18333 2.01797C5.41667 1.78464 5.70172 1.66797 6.0385 1.66797H11.6282C11.9649 1.66797 12.25 1.78464 12.4833 2.01797C12.7167 2.2513 12.8333 2.53636 12.8333 2.87314V10.4628C12.8333 10.7996 12.7167 11.0846 12.4833 11.318C12.25 11.5513 11.9649 11.668 11.6282 11.668H6.0385ZM6.0385 10.668H11.6282C11.6795 10.668 11.7265 10.6466 11.7692 10.6038C11.8119 10.5611 11.8333 10.5141 11.8333 10.4628V2.87314C11.8333 2.8218 11.8119 2.7748 11.7692 2.73213C11.7265 2.68936 11.6795 2.66797 11.6282 2.66797H6.0385C5.98717 2.66797 5.94017 2.68936 5.8975 2.73213C5.85472 2.7748 5.83333 2.8218 5.83333 2.87314V10.4628C5.83333 10.5141 5.85472 10.5611 5.8975 10.6038C5.94017 10.6466 5.98717 10.668 6.0385 10.668ZM3.70517 14.0013C3.36839 14.0013 3.08333 13.8846 2.85 13.6513C2.61667 13.418 2.5 13.1329 2.5 12.7961V4.70647C2.5 4.56458 2.54789 4.44575 2.64367 4.34997C2.73933 4.2543 2.85811 4.20647 3 4.20647C3.14189 4.20647 3.26072 4.2543 3.3565 4.34997C3.45217 4.44575 3.5 4.56458 3.5 4.70647V12.7961C3.5 12.8475 3.52139 12.8945 3.56417 12.9371C3.60683 12.9799 3.65383 13.0013 3.70517 13.0013H9.79484C9.93673 13.0013 10.0556 13.0491 10.1513 13.1448C10.247 13.2406 10.2948 13.3594 10.2948 13.5013C10.2948 13.6432 10.247 13.762 10.1513 13.8576C10.0556 13.9534 9.93673 14.0013 9.79484 14.0013H3.70517Z" fill="#535B62"/>
</svg>
 